<?xml version="1.0" encoding="UTF-8"?>
<svg version="1.1" xmlns="http://www.w3.org/2000/svg" width="1171" height="1147">
<path d="M0 0 C386.43 0 772.86 0 1171 0 C1171 378.51 1171 757.02 1171 1147 C784.57 1147 398.14 1147 0 1147 C0 768.49 0 389.98 0 0 Z " fill="#90F333" transform="translate(0,0)"/>
<path d="M0 0 C1.38919565 -0.00668677 1.38919565 -0.00668677 2.80645585 -0.01350862 C3.82044883 -0.01332426 4.8344418 -0.01313989 5.87916183 -0.01294994 C7.49903366 -0.01846498 7.49903366 -0.01846498 9.15163016 -0.02409142 C12.78271564 -0.03513482 16.41377252 -0.03897321 20.04487228 -0.04278088 C22.64328731 -0.04904495 25.24170145 -0.0556917 27.84011459 -0.0626936 C35.64574135 -0.08244154 43.45136938 -0.09252143 51.25701487 -0.10142139 C54.93393896 -0.10580643 58.61086162 -0.11117262 62.28778458 -0.11641026 C74.51208955 -0.13341975 86.73639363 -0.14791415 98.96070862 -0.155159 C102.13182959 -0.15706884 105.30295056 -0.15898919 108.4740715 -0.16094494 C109.65630014 -0.16167055 109.65630014 -0.16167055 110.86241218 -0.16241082 C123.63142122 -0.17071207 136.40033662 -0.19605181 149.16930476 -0.22852562 C162.2821358 -0.26160183 175.39491925 -0.2796082 188.50779223 -0.28280324 C195.86893826 -0.28496766 203.22994766 -0.29370644 210.59105301 -0.31926441 C217.51526807 -0.34325024 224.43923351 -0.34679357 231.36348152 -0.33650303 C233.90474833 -0.33600666 236.44602709 -0.34235682 238.987257 -0.35605907 C242.45713651 -0.37372176 245.92612775 -0.36669849 249.39600754 -0.35352612 C250.40107763 -0.36449536 251.40614771 -0.37546461 252.44167447 -0.38676625 C259.9625399 -0.31785915 265.4366173 1.25315977 270.89155197 6.57172108 C273.92513199 13.77647361 273.57179256 20.50803255 270.70014572 27.73578358 C269.072577 31.51291327 267.31541031 35.21993205 265.46650314 38.89349842 C264.3017443 41.32142407 263.25075629 43.7902156 262.19784164 46.26825428 C260.86027549 49.36373487 259.42606149 52.4141505 257.99311447 55.46625233 C257.67627701 56.1429044 257.35943954 56.81955647 257.03300095 57.51671314 C256.36630453 58.93969477 255.69902961 60.3624055 255.03120041 61.78485584 C254.02450974 63.92976583 253.02040934 66.07587448 252.01655197 68.2221117 C237.23430079 99.78185432 217.37287255 123.84427709 184.26655197 137.07172108 C183.59994553 137.34202137 182.93333908 137.61232166 182.24653244 137.89081287 C168.48249567 143.06502865 154.8306608 143.56307837 140.32929611 143.47479725 C138.35666543 143.47394913 136.3840338 143.47442971 134.41140366 143.47612476 C129.10245902 143.47697894 123.79372133 143.45944756 118.48482442 143.43840289 C112.91951906 143.41953894 107.35420798 143.41787804 101.78887558 143.41432667 C91.27078752 143.40503459 80.75279396 143.38045951 70.23474735 143.3502782 C58.25156949 143.31664548 46.26838691 143.30022594 34.28517354 143.28519189 C9.65391413 143.2539072 -14.97726163 143.20120235 -39.60844803 143.13422108 C-39.60616971 144.2328179 -39.60616971 144.2328179 -39.60384536 145.35360861 C-39.51425129 188.8019805 -39.44566052 232.25034231 -39.40418671 275.69878814 C-39.39918414 280.92059276 -39.39400682 286.1423972 -39.38872147 291.36420155 C-39.38767222 292.40372913 -39.38662298 293.44325672 -39.38554195 294.51428515 C-39.36815666 311.32617384 -39.33662933 328.13800759 -39.29983684 344.94986373 C-39.26237517 362.212007 -39.24020114 379.47412156 -39.23209405 396.73630381 C-39.22661711 407.38022575 -39.209345 418.02399236 -39.17678216 428.66786647 C-39.1555697 435.9757468 -39.14926316 443.28354732 -39.15444252 450.59145617 C-39.15699386 454.80204878 -39.15319962 459.01237074 -39.13162613 463.2229147 C-39.11196467 467.08881103 -39.11130281 470.95425825 -39.12485245 474.82017654 C-39.12730661 476.85831311 -39.11023117 478.89644548 -39.09212279 480.93450308 C-39.25636665 506.66270308 -50.52366852 532.89613433 -68.60844803 551.13422108 C-73.41982611 555.68702222 -78.48890972 559.93459981 -83.60844803 564.13422108 C-85.03157303 565.3021117 -85.03157303 565.3021117 -86.48344803 566.49359608 C-88.23373894 567.92091664 -89.98634849 569.3453986 -91.74126053 570.76703358 C-95.86288517 574.16990078 -99.88574884 577.68280806 -103.9165535 581.19232655 C-109.57264174 586.11434199 -115.28613151 590.96494241 -121.02006912 595.79584217 C-123.69753755 598.05189534 -126.3721776 600.31128714 -129.04594803 602.57172108 C-129.57833084 603.02160389 -130.11071365 603.4714867 -130.65922928 603.93500233 C-134.10074574 606.84705472 -137.52534759 609.77806555 -140.94267654 612.71844959 C-146.4762257 617.47948964 -152.05859431 622.1616124 -157.72954178 626.75922108 C-161.88221284 630.18503384 -165.95274382 633.70504136 -170.01469803 637.2377367 C-175.64474606 642.10817508 -175.64474606 642.10817508 -178.63188553 642.18890858 C-185.02798773 641.70016987 -185.02798773 641.70016987 -188.10844803 638.69672108 C-190.55131376 634.52349213 -190.73508349 632.23457417 -190.73987579 627.34228802 C-190.74192843 626.63228018 -190.74398106 625.92227234 -190.7460959 625.19074911 C-190.75179606 622.78735773 -190.75030493 620.3840231 -190.74888992 617.98062611 C-190.75147188 616.24963665 -190.75448456 614.51864779 -190.75789332 612.78765976 C-190.76598737 608.01160116 -190.76775424 603.23555757 -190.76849079 598.45949292 C-190.77033733 593.31533893 -190.77788293 588.17119281 -190.78462601 583.02704334 C-190.79822986 571.76611708 -190.80423806 560.50519438 -190.80863667 549.24426126 C-190.81139727 542.21173209 -190.81563445 535.1792043 -190.82014084 528.14667606 C-190.83233929 508.67546837 -190.84263544 489.20426178 -190.84601593 469.73305035 C-190.8462355 468.48581364 -190.84645506 467.23857692 -190.84668128 465.95354516 C-190.84689956 464.70330066 -190.84711784 463.45305616 -190.84734273 462.16492546 C-190.8477862 459.63141592 -190.84823276 457.09790639 -190.8486824 454.56439686 C-190.84890383 453.30768539 -190.84912526 452.05097393 -190.8493534 450.7561803 C-190.8532969 430.41694114 -190.87073466 410.07773791 -190.89404193 389.73851262 C-190.91777862 368.85574145 -190.93021894 347.97298828 -190.93138385 327.0902034 C-190.93229964 315.3659327 -190.93802719 303.64170872 -190.95620346 291.9174509 C-190.97163615 281.92747172 -190.97670647 271.93755367 -190.96846536 261.94756483 C-190.96456923 256.85400246 -190.96543739 251.76056311 -190.97952271 246.66701603 C-190.99232489 241.99448595 -190.99100903 237.32217051 -190.97893199 232.64964046 C-190.9769858 230.96840175 -190.98000297 229.2871475 -190.98877636 227.60593055 C-191.16610193 191.29629583 -176.99751524 158.68350669 -151.6301918 132.92563343 C-136.86926644 118.02988303 -136.86926644 118.02988303 -129.44682693 111.76263905 C-127.06361113 109.65160991 -124.8540384 107.39137203 -122.60844803 105.13422108 C-121.7092514 104.23280384 -120.81005478 103.3313866 -119.88360977 102.40265369 C-118.89025672 101.40629619 -117.89692597 100.40991645 -116.90361404 99.41351795 C-111.34226264 93.83583673 -105.77837489 88.26069282 -100.21303272 82.6869936 C-96.85384482 79.3225799 -93.49560218 75.95723354 -90.13945389 72.58978748 C-86.88097365 69.32041345 -83.6200307 66.05351429 -80.35739326 62.78828907 C-79.1194288 61.5484849 -77.88234098 60.30780472 -76.64616966 59.06621265 C-74.91401493 57.32675899 -73.17871495 55.59050067 -71.44267654 53.8549242 C-70.93911133 53.34776371 -70.43554611 52.84060322 -69.91672134 52.31807423 C-66.62750105 49.03826155 -63.19181344 46.07949852 -59.60844803 43.13422108 C-57.91869606 41.49096399 -56.2521451 39.82354505 -54.60844803 38.13422108 C-53.68588211 37.19594471 -52.76331619 36.25766834 -51.81279373 35.29095936 C-51.32490875 34.7933913 -50.83702377 34.29582325 -50.3343544 33.78317738 C-48.11938857 31.52746135 -45.89588913 29.28022894 -43.67216873 27.03314686 C-42.51089358 25.85681544 -41.35232903 24.67780151 -40.19658279 23.49603748 C-29.19803838 12.257405 -16.81268132 0.03762823 0 0 Z " fill="#1E1D1D" transform="translate(681.6084480285645,287.86577892303467)"/>
<path d="M0 0 C3.84230632 0.01743217 7.68458945 0.01141727 11.52692425 0.0083909 C18.16801142 0.00630341 24.8089402 0.01874904 31.44998753 0.04134226 C41.05155057 0.07398589 50.65303779 0.08428185 60.2546503 0.08929422 C75.83627088 0.09802759 91.41780723 0.12458974 106.99938214 0.16250467 C122.12665653 0.19927565 137.25390796 0.22756245 152.38121808 0.24453592 C153.31519383 0.24558682 154.24916959 0.24663771 155.21144765 0.24772045 C159.89738636 0.25294097 164.58332524 0.25799571 169.26926422 0.26296806 C208.08374072 0.30436904 246.89812323 0.3747638 285.7125169 0.46426249 C284.76064998 1.58145528 283.80782777 2.6978342 282.85460675 3.81387186 C282.05885739 4.74652872 282.05885739 4.74652872 281.24703228 5.69802713 C279.35745855 7.87293654 277.37836007 9.9310061 275.3375169 11.96426249 C274.30497784 13.00066874 274.30497784 13.00066874 273.2515794 14.05801249 C271.21262616 15.99031279 269.14431259 17.82740746 267.01595318 19.65763712 C262.94925039 23.20882225 259.11459841 26.93992558 255.31847394 30.77651834 C254.28278523 31.81680689 254.28278523 31.81680689 253.22617352 32.87811136 C251.74264522 34.36873883 250.26024952 35.86049422 248.77889645 37.35328341 C246.43652813 39.71316016 244.09053097 42.06937361 241.74349225 44.42460489 C235.07652825 51.11593503 228.41536427 57.81301794 221.75841534 64.51431131 C217.67504322 68.62437878 213.58688383 72.72963293 209.4956857 76.83190966 C207.93800583 78.39581282 206.38222792 79.96161269 204.82836545 81.5293088 C202.66679072 83.70997927 200.49923713 85.88453144 198.33019269 88.05776834 C197.68604916 88.71067347 197.04190564 89.36357859 196.37824261 90.03626871 C191.94041577 94.46426249 191.94041577 94.46426249 189.7125169 94.46426249 C189.45301251 95.06174295 189.19350811 95.65922342 188.92613995 96.27480936 C187.61562441 98.6390627 186.38485266 99.80384195 184.29454815 101.49551249 C180.77390765 104.47396642 177.49957728 107.62919105 174.28673565 110.93301249 C173.80922863 111.42092264 173.33172162 111.9088328 172.83974469 112.41152811 C170.86295442 114.4326285 168.88872201 116.4558404 166.92955792 118.49404764 C160.43777536 125.23355861 153.90900044 130.81142561 145.7125169 135.46426249 C145.07821759 135.84800028 144.44391827 136.23173807 143.79039776 136.62710428 C129.80989386 144.46417853 114.38098923 144.03675942 98.874138 143.96597147 C96.49582868 143.96976081 94.11752158 143.97526589 91.73921978 143.98234415 C85.32252649 143.99622803 78.90610341 143.98518211 72.4894253 143.96863294 C66.44567488 143.95443672 60.40192725 143.9604002 54.35816653 143.96376265 C42.3927427 143.96962183 30.4274246 143.95554016 18.46202862 143.93081522 C6.86107697 143.90684626 -4.73973377 143.89983429 -16.34070575 143.91030741 C-29.00086591 143.92171639 -41.66096114 143.9236511 -54.3211205 143.90920931 C-55.67045668 143.90768356 -57.01979287 143.9061632 -58.36912906 143.9046483 C-59.03291537 143.90389049 -59.69670168 143.90313268 -60.38060272 143.9023519 C-65.05371384 143.89761312 -69.7267865 143.8995663 -74.39989841 143.9037137 C-80.68240849 143.90847843 -86.96472319 143.89840261 -93.24719608 143.87675905 C-95.55428395 143.87118655 -97.86139058 143.87073011 -100.1684798 143.87571192 C-103.31250187 143.88165081 -106.45592363 143.86918647 -109.59989154 143.85194254 C-110.51670503 143.85795258 -111.43351851 143.86396263 -112.37811422 143.8701548 C-117.63613939 143.81755538 -121.37926037 143.37248521 -125.2874831 139.46426249 C-126.47850042 131.28960062 -123.94370957 125.40796737 -120.2249831 118.27676249 C-119.27467958 116.38798496 -118.32548065 114.49865132 -117.37732685 112.60879374 C-116.87773456 111.62556131 -116.37814228 110.64232889 -115.86341083 109.62930155 C-114.16423731 106.21673989 -112.54433035 102.77136635 -110.9437331 99.31191874 C-107.02500366 90.84922332 -102.94160772 82.46941024 -98.8499831 74.08926249 C-97.41241996 71.14461339 -95.97619201 68.19932014 -94.54138935 65.25332499 C-94.18973209 64.53240168 -93.83807483 63.81147837 -93.47576129 63.0687089 C-91.65409623 59.32222912 -89.86103177 55.56490702 -88.1090163 51.78530741 C-87.75455936 51.02217234 -87.40010242 50.25903727 -87.03490436 49.47277689 C-86.36632832 48.02853768 -85.7018418 46.58239489 -85.04238117 45.13397074 C-82.19746226 38.98732521 -78.60616148 33.68608653 -74.2874831 28.46426249 C-73.58881122 27.60316874 -72.89013935 26.74207499 -72.1702956 25.85488749 C-52.33592021 2.56184878 -28.6991055 -0.16357631 0 0 Z " fill="#171616" transform="translate(354.28748309612274,287.53573751449585)"/>
<path d="M0 0 C22.80934429 -0.09347961 45.61865695 -0.16399704 68.42815399 -0.20724869 C79.01922513 -0.22786579 89.61017718 -0.25597019 100.20117188 -0.30175781 C109.43327938 -0.34165155 118.66530063 -0.36743901 127.89749193 -0.37635398 C132.78499563 -0.38156441 137.67225258 -0.3937932 142.55967712 -0.42292023 C147.16270456 -0.45012935 151.76538428 -0.45843388 156.3684845 -0.45243073 C158.05510347 -0.4535285 159.74173442 -0.46144965 161.42828369 -0.4768219 C177.13664103 -0.61293922 177.13664103 -0.61293922 184 4 C184 4.99 184 5.98 184 7 C183.01 6.67 182.02 6.34 181 6 C180.67 5.34 180.34 4.68 180 4 C172.97204166 1.58759501 166.09959109 1.72342715 158.73095703 1.75708008 C157.41626938 1.75518173 156.10158173 1.75328339 154.74705505 1.75132751 C151.1627511 1.74650728 147.5785729 1.75409731 143.99428415 1.76428056 C140.23828696 1.77309873 136.48229327 1.77130295 132.72628784 1.7709198 C126.42687895 1.77185417 120.12751844 1.78051102 113.828125 1.79418945 C106.54120393 1.8099535 99.25433565 1.81518603 91.96739876 1.8144539 C84.9525308 1.81384428 77.93768003 1.81894107 70.92281723 1.82724571 C67.93800599 1.83077932 64.95320083 1.83260905 61.9683876 1.83313942 C57.80979148 1.83432751 53.65125827 1.84402682 49.49267578 1.85473633 C48.25008499 1.85428314 47.0074942 1.85382996 45.72724915 1.85336304 C44.6001503 1.85762802 43.47305145 1.86189301 42.3117981 1.86628723 C41.32849581 1.86796308 40.34519352 1.86963892 39.33209419 1.87136555 C36.97606416 1.84643684 36.97606416 1.84643684 35 3 C32.02687478 2.93599926 29.0906255 2.81064166 26.125 2.625 C25.30902344 2.58117187 24.49304688 2.53734375 23.65234375 2.4921875 C19.96666018 2.27573626 16.5711983 1.98456861 13 1 C13 1.66 13 2.32 13 3 C10.03 3 7.06 3 4 3 C4 2.34 4 1.68 4 1 C2.68 0.67 1.36 0.34 0 0 Z " fill="#2D2D2F" transform="translate(766,288)"/>
<path d="M0 0 C46.86 0 93.72 0 142 0 C135.22429995 7.90498339 128.71377331 15.2526176 120 21 C121.44077046 17.63820226 123.24750021 15.40843732 126 13 C126.66 13 127.32 13 128 13 C128 12.34 128 11.68 128 11 C128.66 11 129.32 11 130 11 C130.66 9.68 131.32 8.36 132 7 C132.66 7 133.32 7 134 7 C134.33 6.01 134.66 5.02 135 4 C136.5625 2.3125 136.5625 2.3125 138 1 C137.13509949 1.16298584 136.27019897 1.32597168 135.37908936 1.49389648 C132.16104617 1.97587929 129.18424083 2.11419822 125.93457031 2.09765625 C124.76025452 2.09435303 123.58593872 2.0910498 122.3760376 2.08764648 C121.12272644 2.07934814 119.86941528 2.0710498 118.578125 2.0625 C116.59790962 2.05671574 114.6176942 2.05093691 112.63747787 2.04548645 C109.17496547 2.03458206 105.71248658 2.01707192 102.25 2 C98.10244251 1.97962595 93.95490499 1.96041527 89.80731201 1.94897461 C87.22758229 1.94141685 84.64786124 1.92932431 82.06817627 1.91235352 C80.90646912 1.90905029 79.74476196 1.90574707 78.54785156 1.90234375 C77.52226135 1.89710693 76.49667114 1.89187012 75.44000244 1.88647461 C72.9918523 1.83525697 72.9918523 1.83525697 71 3 C69.32949881 2.68644831 67.66323554 2.35005201 66 2 C64.25926571 1.92176286 62.515899 1.8921051 60.7734375 1.90234375 C59.75467529 1.90564697 58.73591309 1.9089502 57.6862793 1.91235352 C56.59355713 1.92065186 55.50083496 1.9289502 54.375 1.9375 C53.23651611 1.94128662 52.09803223 1.94507324 50.92504883 1.94897461 C46.06668632 1.96525665 41.20840885 1.99321028 36.35009766 2.02050781 C32.79590252 2.03876649 29.24172175 2.05075753 25.6875 2.0625 C24.07270752 2.07494751 24.07270752 2.07494751 22.42529297 2.08764648 C14.90684589 2.11143537 7.48714602 1.67621408 0 1 C0 0.67 0 0.34 0 0 Z " fill="#363638" transform="translate(498,288)"/>
<path d="M0 0 C0.68052933 -0.0065712 1.36105865 -0.0131424 2.06221008 -0.01991272 C4.29619485 -0.03949348 6.530113 -0.0512719 8.76416016 -0.0612793 C9.53198444 -0.06535482 10.29980873 -0.06943035 11.09090042 -0.07362938 C15.15255711 -0.09442186 19.21418066 -0.10875478 23.27587891 -0.11816406 C27.45425682 -0.1292349 31.6321032 -0.16366174 35.8102932 -0.20333576 C39.03950954 -0.22955783 42.26859993 -0.23786064 45.49791336 -0.24144554 C47.03759999 -0.24629437 48.57728163 -0.25785945 50.11686325 -0.27648354 C58.2525252 -0.36881157 64.93516209 -0.43276061 71.92822266 4.17700195 C71.92822266 5.16700195 71.92822266 6.15700195 71.92822266 7.17700195 C70.93822266 6.84700195 69.94822266 6.51700195 68.92822266 6.17700195 C68.43322266 5.18700195 68.43322266 5.18700195 67.92822266 4.17700195 C62.59994311 2.52691988 57.92431905 1.93048773 52.31884766 1.94995117 C51.60566879 1.94965912 50.89248993 1.94936707 50.15769958 1.94906616 C47.83107776 1.95044495 45.50478762 1.96593653 43.17822266 1.98168945 C41.55298029 1.98542476 39.92773566 1.98826929 38.30249023 1.99026489 C34.04788881 1.99786058 29.79342634 2.01747365 25.53887939 2.03967285 C21.18821085 2.06021934 16.8375196 2.06928535 12.48681641 2.0793457 C3.96722176 2.10072381 -4.55226045 2.13481002 -13.07177734 2.17700195 C-13.07177734 1.84700195 -13.07177734 1.51700195 -13.07177734 1.17700195 C-8.6674506 0.33516135 -4.48142903 0.03604688 0 0 Z " fill="#37353A" transform="translate(878.07177734375,287.822998046875)"/>
<path d="M0 0 C0 0.66 0 1.32 0 2 C-1.57421875 3.515625 -1.57421875 3.515625 -3.6875 5.25 C-6.23977762 7.41203482 -8.55071681 9.4998416 -10.625 12.125 C-13.15852413 15.19189763 -15.94950216 17.45791846 -19 20 C-20.21013645 21.46490202 -21.4194707 22.93068269 -22.60522461 24.41539001 C-24.17870591 26.20302851 -25.87537409 27.68840781 -27.69140625 29.22875977 C-31.82886122 32.80728487 -35.71139402 36.58252427 -39.5625 40.46484375 C-40.57763672 41.48210289 -40.57763672 41.48210289 -41.61328125 42.51991272 C-43.74457675 44.65674305 -45.87234218 46.79704823 -48 48.9375 C-49.45679779 50.39932123 -50.91382701 51.86091187 -52.37109375 53.32226562 C-55.91673973 56.878854 -59.45922739 60.43856016 -63 64 C-63.66 63.67 -64.32 63.34 -65 63 C-62.78947618 59.96052974 -60.44949473 57.45928857 -57.58544922 55.05639648 C-52.39549646 50.56087816 -47.59552881 45.69263043 -42.770298 40.81489754 C-41.10007402 39.12707277 -39.42614993 37.44299693 -37.75119019 35.75987244 C-32.99580319 30.98019385 -28.24633137 26.19466748 -23.50097656 21.4050293 C-20.58470181 18.46205353 -17.66363916 15.52390204 -14.73952866 12.58871269 C-13.62841772 11.47138441 -12.51920908 10.35216111 -11.41193008 9.23103523 C-9.87301403 7.67301292 -8.32813711 6.12114695 -6.78173828 4.57055664 C-5.90429962 3.68566055 -5.02686096 2.80076447 -4.12283325 1.88905334 C-2 0 -2 0 0 0 Z " fill="#373A34" transform="translate(618,336)"/>
<path d="M0 0 C27.06 0 54.12 0 82 0 C80 2 80 2 76.5 2.0625 C75.345 2.041875 74.19 2.02125 73 2 C72.34 2.33 71.68 2.66 71 3 C69.32949881 2.68644831 67.66323554 2.35005201 66 2 C64.25926571 1.92176286 62.515899 1.8921051 60.7734375 1.90234375 C59.75467529 1.90564697 58.73591309 1.9089502 57.6862793 1.91235352 C56.59355713 1.92065186 55.50083496 1.9289502 54.375 1.9375 C53.23651611 1.94128662 52.09803223 1.94507324 50.92504883 1.94897461 C46.06668632 1.96525665 41.20840885 1.99321028 36.35009766 2.02050781 C32.79590252 2.03876649 29.24172175 2.05075753 25.6875 2.0625 C24.07270752 2.07494751 24.07270752 2.07494751 22.42529297 2.08764648 C14.90684589 2.11143537 7.48714602 1.67621408 0 1 C0 0.67 0 0.34 0 0 Z " fill="#252927" transform="translate(498,288)"/>
<path d="M0 0 C0.33 0.99 0.66 1.98 1 3 C0.01 3.33 -0.98 3.66 -2 4 C-2.70394612 5.31403276 -3.36345658 6.6520257 -4 8 C-6.29451135 11.26526616 -8.82096516 13.72634144 -11.875 16.25 C-15.58255825 19.40522183 -18.11934111 22.76271933 -20.67578125 26.88671875 C-22.01181011 29.01884741 -23.46590649 31.00702808 -25 33 C-25.66 32.67 -26.32 32.34 -27 32 C-19.308314 19.93803786 -10.21315009 9.93291121 0 0 Z " fill="#3C4930" transform="translate(537,414)"/>
<path d="M0 0 C0.66 0.99 1.32 1.98 2 3 C1.12890625 5.64453125 1.12890625 5.64453125 -0.4375 8.8125 C-1.28248047 10.53146484 -1.28248047 10.53146484 -2.14453125 12.28515625 C-2.60013428 13.19031982 -2.60013428 13.19031982 -3.06494141 14.11376953 C-4.01936446 16.03906262 -4.92536288 17.98180623 -5.82421875 19.93359375 C-6.42372779 21.20608344 -7.02396958 22.4782282 -7.625 23.75 C-8.17414062 24.92046875 -8.72328125 26.0909375 -9.2890625 27.296875 C-11 30 -11 30 -13.2109375 30.890625 C-14.09652344 30.94476563 -14.09652344 30.94476563 -15 31 C-14.50371094 30.01902344 -14.00742187 29.03804688 -13.49609375 28.02734375 C-8.82583752 18.76081555 -4.3347015 9.42797576 0 0 Z " fill="#97DE25" transform="translate(936,349)"/>
<path d="M0 0 C0 0.66 0 1.32 0 2 C-1.57421875 3.515625 -1.57421875 3.515625 -3.6875 5.25 C-6.23977762 7.41203482 -8.55071681 9.4998416 -10.625 12.125 C-13.15852413 15.19189763 -15.94950216 17.45791846 -19 20 C-19.8976665 21.02219827 -20.77325304 22.06423539 -21.625 23.125 C-23.64136979 25.5658687 -25.3898554 27.2599036 -28 29 C-28.66 28.67 -29.32 28.34 -30 28 C-26.05534383 24.00602615 -22.10425446 20.01857403 -18.14697266 16.03710938 C-16.80076671 14.68082557 -15.45635851 13.32275497 -14.11376953 11.96289062 C-12.18728284 10.01223399 -10.25449117 8.06802606 -8.3203125 6.125 C-7.41709763 5.20630127 -7.41709763 5.20630127 -6.49563599 4.26904297 C-2.22774341 0 -2.22774341 0 0 0 Z " fill="#48573C" transform="translate(618,336)"/>
<path d="M0 0 C3.06659182 0.33309532 4.66144218 0.69543125 6.984375 2.78515625 C11.00450979 7.9704186 13.10697378 11.36762568 13 18 C11.67346939 24.32653061 11.67346939 24.32653061 9 27 C9.03480469 25.83082031 9.06960938 24.66164063 9.10546875 23.45703125 C9.13361716 21.90886859 9.16091619 20.36069032 9.1875 18.8125 C9.21263672 18.04357422 9.23777344 17.27464844 9.26367188 16.48242188 C9.32384213 11.8091987 9.05391114 8.78204273 6 5 C4.03625365 3.61382611 2.04087808 2.26987969 0 1 C0 0.67 0 0.34 0 0 Z " fill="#9FE028" transform="translate(944,288)"/>
<path d="M0 0 C0.92554688 -0.02449219 1.85109375 -0.04898437 2.8046875 -0.07421875 C9.26701981 -0.10160151 13.31734805 1.06656249 18.875 4.375 C18.875 5.365 18.875 6.355 18.875 7.375 C17.885 7.045 16.895 6.715 15.875 6.375 C15.545 5.715 15.215 5.055 14.875 4.375 C8.78763158 2.39660526 3.23604174 2.12297459 -3.125 2.25 C-3.99511719 2.25902344 -4.86523438 2.26804687 -5.76171875 2.27734375 C-7.8829342 2.30065381 -10.00400562 2.33651421 -12.125 2.375 C-8.80483428 -0.94516572 -4.50904777 0.00612642 0 0 Z " fill="#444441" transform="translate(931.125,287.625)"/>
<path d="M0 0 C0 3.33896168 -0.59422625 4.40480889 -2.3125 7.1875 C-2.74175781 7.90292969 -3.17101562 8.61835938 -3.61328125 9.35546875 C-4.07089844 9.89816406 -4.52851562 10.44085938 -5 11 C-5.99 11 -6.98 11 -8 11 C-9.72856265 12.36309525 -9.72856265 12.36309525 -11.375 14.1875 C-11.98214844 14.82171875 -12.58929687 15.4559375 -13.21484375 16.109375 C-13.80394531 16.73328125 -14.39304687 17.3571875 -15 18 C-15.97551082 18.98280891 -16.95413996 19.96254474 -17.9375 20.9375 C-18.9584375 21.9584375 -18.9584375 21.9584375 -20 23 C-20.66 22.67 -21.32 22.34 -22 22 C-14.74 14.74 -7.48 7.48 0 0 Z " fill="#50564C" transform="translate(653,300)"/>
<path d="M0 0 C0.99 0.33 1.98 0.66 3 1 C0.65443111 3.40437776 -1.70296599 5.79683171 -4.0625 8.1875 C-4.71927734 8.86103516 -5.37605469 9.53457031 -6.05273438 10.22851562 C-10.1157531 14.33156409 -14.20051613 17.78578129 -19 21 C-17.55922954 17.63820226 -15.75249979 15.40843732 -13 13 C-12.34 13 -11.68 13 -11 13 C-11 12.34 -11 11.68 -11 11 C-10.34 11 -9.68 11 -9 11 C-8.34 9.68 -7.68 8.36 -7 7 C-6.34 7 -5.68 7 -5 7 C-4.67 6.01 -4.34 5.02 -4 4 C-2.70644173 2.62804426 -1.37701298 1.28817344 0 0 Z " fill="#414A34" transform="translate(637,288)"/>
<path d="M0 0 C1.27396229 3.82188686 0.47488806 4.70109238 -1.25 8.25 C-1.71664062 9.2296875 -2.18328125 10.209375 -2.6640625 11.21875 C-3.10492187 12.1365625 -3.54578125 13.054375 -4 14 C-4.5510647 15.24588542 -5.09455966 16.4951949 -5.625 17.75 C-6.63978548 20.14858386 -7.66042898 22.54418566 -8.6875 24.9375 C-9.120625 25.948125 -9.55375 26.95875 -10 28 C-11.26907163 25.03634449 -10.93586473 23.79288648 -9.9609375 20.64453125 C-9.44544821 19.36182151 -8.91609195 18.08462145 -8.375 16.8125 C-8.10155762 16.14919678 -7.82811523 15.48589355 -7.54638672 14.80249023 C-5.38525713 9.66245561 -2.91436005 4.75840202 0 0 Z " fill="#373A2F" transform="translate(950,315)"/>
<path d="M0 0 C1.4765625 1.09765625 1.4765625 1.09765625 3 3 C3.3984375 5.99609375 3.3984375 5.99609375 3.375 9.4375 C3.38273438 10.57058594 3.39046875 11.70367187 3.3984375 12.87109375 C2.97392148 16.20479311 2.25455532 17.57247615 0 20 C-1.89733151 16.20533697 -0.05339454 11.44469982 0.625 7.3828125 C0.95082627 4.44358802 0.98784044 2.73028122 0 0 Z " fill="#46483C" transform="translate(951,295)"/>
<path d="M0 0 C8.25 0 16.5 0 25 0 C23 2 23 2 19.5 2.0625 C18.345 2.041875 17.19 2.02125 16 2 C15.01 2.495 15.01 2.495 14 3 C12.33333333 2.66666667 10.66666667 2.33333333 9 2 C7.783125 2.020625 6.56625 2.04125 5.3125 2.0625 C2 2 2 2 0 0 Z " fill="#2D312D" transform="translate(555,288)"/>
<path d="M0 0 C0.66 0.33 1.32 0.66 2 1 C1.4225 1.70125 0.845 2.4025 0.25 3.125 C-1.99679137 5.99590008 -3.99354811 8.95796003 -6 12 C-6.98866506 13.34175973 -7.9838154 14.67896002 -9 16 C-9.66 15.67 -10.32 15.34 -11 15 C-7.59445921 9.73369981 -4.12331138 4.7296807 0 0 Z " fill="#343C2F" transform="translate(521,431)"/>
<path d="M0 0 C0.66 0.33 1.32 0.66 2 1 C-1.95825209 5.82485166 -5.59160025 9.83410746 -11 13 C-9.46356148 9.31930113 -7.21849055 7.01224796 -4.375 4.25 C-3.55773437 3.45078125 -2.74046875 2.6515625 -1.8984375 1.828125 C-0.95871094 0.92320312 -0.95871094 0.92320312 0 0 Z " fill="#9FED24" transform="translate(912,392)"/>
<path d="M0 0 C0 0.66 0 1.32 0 2 C-0.99 2 -1.98 2 -3 2 C-3 2.66 -3 3.32 -3 4 C-8.445 6.475 -8.445 6.475 -14 9 C-14.66 8.34 -15.32 7.68 -16 7 C-13.71070947 5.82845707 -11.41881638 4.66261926 -9.125 3.5 C-8.47402344 3.16613281 -7.82304688 2.83226562 -7.15234375 2.48828125 C-2.2265625 0 -2.2265625 0 0 0 Z " fill="#8ED820" transform="translate(884,416)"/>
<path d="M0 0 C0.66 0.99 1.32 1.98 2 3 C0.98877577 5.70546835 -0.07482145 8.12777348 -1.375 10.6875 C-1.88933594 11.7403418 -1.88933594 11.7403418 -2.4140625 12.81445312 C-3.26367583 14.54908033 -4.13026287 16.27537492 -5 18 C-5.66 17.67 -6.32 17.34 -7 17 C-7 16.34 -7 15.68 -7 15 C-6.34 15 -5.68 15 -5 15 C-4.9175 14.195625 -4.835 13.39125 -4.75 12.5625 C-3.79803325 8.04065795 -1.98419821 4.15297299 0 0 Z " fill="#7AEB3F" transform="translate(236,397)"/>
<path d="M0 0 C0.66 0 1.32 0 2 0 C0.40109514 5.19644079 -1.74138003 10.06612142 -4 15 C-4.66 13.68 -5.32 12.36 -6 11 C-5.34 11 -4.68 11 -4 11 C-3.87625 10.278125 -3.7525 9.55625 -3.625 8.8125 C-2.14285714 2.14285714 -2.14285714 2.14285714 0 0 Z " fill="#32342B" transform="translate(937,343)"/>
<path d="M0 0 C1 3 1 3 0.00390625 5.48046875 C-0.47175781 6.37378906 -0.94742188 7.26710938 -1.4375 8.1875 C-1.91058594 9.08855469 -2.38367188 9.98960937 -2.87109375 10.91796875 C-3.24363281 11.60503906 -3.61617187 12.29210937 -4 13 C-4.66 13 -5.32 13 -6 13 C-4.58707905 8.1725201 -2.57025846 4.2837641 0 0 Z " fill="#14220D" transform="translate(241,393)"/>
<path d="M0 0 C0.66 0.99 1.32 1.98 2 3 C0.68 5.64 -0.64 8.28 -2 11 C-2.99 11 -3.98 11 -5 11 C-3.77472971 6.94718288 -2.30119506 3.55639236 0 0 Z " fill="#3A4830" transform="translate(507,451)"/>
<path d="M0 0 C-1.55500981 3.81684226 -4.03595495 6.19195732 -7 9 C-7.99 8.67 -8.98 8.34 -10 8 C-8.71451591 6.66070495 -7.42141845 5.32871357 -6.125 4 C-5.04605469 2.88625 -5.04605469 2.88625 -3.9453125 1.75 C-2 0 -2 0 0 0 Z " fill="#17280E" transform="translate(292,305)"/>
<path d="M0 0 C0.93045933 2.55144824 1.08564091 3.74006478 0.22265625 6.359375 C-0.16019531 7.14828125 -0.54304687 7.9371875 -0.9375 8.75 C-1.50791016 9.94882812 -1.50791016 9.94882812 -2.08984375 11.171875 C-2.39019531 11.77515625 -2.69054687 12.3784375 -3 13 C-3.66 12.67 -4.32 12.34 -5 12 C-3.68938409 7.76570244 -2.05643741 3.92592596 0 0 Z " fill="#172910" transform="translate(251,371)"/>
<path d="M0 0 C0.99 0.33 1.98 0.66 3 1 C0.03 3.97 -2.94 6.94 -6 10 C-6.66 9.34 -7.32 8.68 -8 8 C-7.01 7.67 -6.02 7.34 -5 7 C-4.67 6.01 -4.34 5.02 -4 4 C-2.70644173 2.62804426 -1.37701298 1.28817344 0 0 Z " fill="#4A503C" transform="translate(637,288)"/>
<path d="M0 0 C0.99 0.33 1.98 0.66 3 1 C0.03 3.97 -2.94 6.94 -6 10 C-6.33 9.01 -6.66 8.02 -7 7 C-6.34 7 -5.68 7 -5 7 C-4.67 6.01 -4.34 5.02 -4 4 C-3.34 4 -2.68 4 -2 4 C-2 3.34 -2 2.68 -2 2 C-1.34 2 -0.68 2 0 2 C0 1.34 0 0.68 0 0 Z " fill="#82D32F" transform="translate(554,395)"/>
<path d="M0 0 C0.66 0 1.32 0 2 0 C1.91276622 1.77174819 1.80458345 3.54247377 1.6875 5.3125 C1.62949219 6.29863281 1.57148437 7.28476562 1.51171875 8.30078125 C0.95377187 11.24384457 0.31459868 12.18182999 -2 14 C-1.33333333 9.33333333 -0.66666667 4.66666667 0 0 Z " fill="#A4F426" transform="translate(955,301)"/>
<path d="M0 0 C4.875 4.75 4.875 4.75 6 7 C4.02 7 2.04 7 0 7 C0 4.69 0 2.38 0 0 Z " fill="#428E2F" transform="translate(0,1140)"/>
<path d="M0 0 C0.66 0.33 1.32 0.66 2 1 C0.66667905 4.99996286 -1.4957827 5.83782337 -5 8 C-5.66 7.67 -6.32 7.34 -7 7 C-4.69 4.69 -2.38 2.38 0 0 Z " fill="#7EDD2C" transform="translate(525,401)"/>
<path d="M0 0 C0.66 0.33 1.32 0.66 2 1 C-3.14285714 6.57142857 -3.14285714 6.57142857 -7 7 C-2.25 1.125 -2.25 1.125 0 0 Z " fill="#86E830" transform="translate(545,896)"/>
<path d="M0 0 C0.66 0 1.32 0 2 0 C0.515 5.445 0.515 5.445 -1 11 C-1.33 11 -1.66 11 -2 11 C-2.28571429 3.57142857 -2.28571429 3.57142857 0 0 Z " fill="#0E160D" transform="translate(231,413)"/>
<path d="M0 0 C0.33 0 0.66 0 1 0 C0.53199289 4.05606165 0.12046792 7.46588679 -2 11 C-2.66 11 -3.32 11 -4 11 C-3.52269162 9.5410574 -3.04308958 8.08286504 -2.5625 6.625 C-2.29566406 5.81289063 -2.02882813 5.00078125 -1.75390625 4.1640625 C-1 2 -1 2 0 0 Z " fill="#91D129" transform="translate(949,320)"/>
<path d="M0 0 C0.66 0.66 1.32 1.32 2 2 C-0.97 4.475 -0.97 4.475 -4 7 C-4.66 6.34 -5.32 5.68 -6 5 C-4.02 3.35 -2.04 1.7 0 0 Z " fill="#84E430" transform="translate(528,910)"/>
<path d="M0 0 C0.66 0.99 1.32 1.98 2 3 C1.125 5.6875 1.125 5.6875 0 8 C-0.66 8 -1.32 8 -2 8 C-2.33 9.32 -2.66 10.64 -3 12 C-4 10 -4 10 -3.22265625 7.6171875 C-2.83980469 6.71226562 -2.45695312 5.80734375 -2.0625 4.875 C-1.68222656 3.96492188 -1.30195313 3.05484375 -0.91015625 2.1171875 C-0.60980469 1.41851562 -0.30945313 0.71984375 0 0 Z " fill="#384A28" transform="translate(501,463)"/>
<path d="M0 0 C0.66 0.99 1.32 1.98 2 3 C1.01 4.98 0.02 6.96 -1 9 C-1.66 8.67 -2.32 8.34 -3 8 C-1.125 2.25 -1.125 2.25 0 0 Z " fill="#1C3210" transform="translate(245,383)"/>
<path d="M0 0 C0.99 0.33 1.98 0.66 3 1 C-0.465 3.97 -0.465 3.97 -4 7 C-4 6.01 -4 5.02 -4 4 C-3.34 4 -2.68 4 -2 4 C-1.34 2.68 -0.68 1.36 0 0 Z " fill="#303923" transform="translate(576,348)"/>
<path d="M0 0 C0 0.99 0 1.98 0 3 C-1.98 3.66 -3.96 4.32 -6 5 C-6.66 4.34 -7.32 3.68 -8 3 C-2.25 0 -2.25 0 0 0 Z " fill="#2B3525" transform="translate(669,291)"/>
<path d="M0 0 C0.66 0.99 1.32 1.98 2 3 C0.625 5.5 0.625 5.5 -1 8 C-1.66 8 -2.32 8 -3 8 C-1.125 2.25 -1.125 2.25 0 0 Z " fill="#1F3711" transform="translate(256,360)"/>
<path d="M0 0 C0.33 0.66 0.66 1.32 1 2 C-0.32 3.65 -1.64 5.3 -3 7 C-3.99 6.67 -4.98 6.34 -6 6 C-4.02 4.02 -2.04 2.04 0 0 Z " fill="#8DE030" transform="translate(614,313)"/>
</svg>
